# xmcd CD database file
#
# Track frame offsets:
#	150
#	21747
#	41469
#	64331
#	95471
#	110923
#	133964
#	162678
#	192629
#	218737
#	244038
#	272920
#
# Disc length: 3913 seconds
#
# Revision: 0
# Processed by: cddbd v1.5.2PL0 Copyright (c) Steve Scherf et al.
# Submitted via: CDex 1.51
#
DISCID=c50f470c
DTITLE=esra dalfidan's FIDAN - counter point
DYEAR=2009
DGENRE=Jazz
TTITLE0=Sana bele n'oldu yar
TTITLE1=Paradox
TTITLE2=Bilmem hayal miydi
TTITLE3=Aglar Veysel
TTITLE4=Countdown
TTITLE5=Waltz for A.
TTITLE6=Wisdom
TTITLE7=Ben seni sevdigimi
TTITLE8=Leave rage behind
TTITLE9=Nike Lenya
TTITLE10=A strange encounter
TTITLE11=Bonus: Feel free
EXTD=YEAR: 2009
EXTT0=
EXTT1=
EXTT2=
EXTT3=
EXTT4=
EXTT5=
EXTT6=
EXTT7=
EXTT8=
EXTT9=
EXTT10=
EXTT11=
PLAYORDER=
